<svg width="20" height="20" viewBox="0 0 20 20" fill="none" xmlns="http://www.w3.org/2000/svg">
<g clip-path="url(#clip0_103_9)">
<path d="M18.98 10.2836L9.6875 0.991137C9.5717 0.8747 9.43396 0.782386 9.28224 0.71954C9.13052 0.656693 8.96785 0.624561 8.80363 0.625005H2.5C2.00289 0.625573 1.52631 0.8233 1.1748 1.17481C0.823295 1.52631 0.625569 2.0029 0.625 2.5V8.79211C0.625273 8.96279 0.660373 9.13162 0.728151 9.28827C0.795928 9.44491 0.894958 9.58608 1.01918 9.70313L10.9044 18.9893C11.0776 19.153 11.307 19.244 11.5454 19.2436C11.557 19.2436 11.5688 19.2433 11.5805 19.2429C11.7045 19.2388 11.8263 19.2099 11.939 19.158C12.0516 19.1062 12.1527 19.0323 12.2364 18.9408L19.0071 11.5812C19.1713 11.4035 19.2603 11.1689 19.2552 10.927C19.2502 10.685 19.1515 10.4544 18.98 10.2836ZM11.5301 17.8621L1.875 8.79211V2.5C1.8752 2.3343 1.94111 2.17545 2.05828 2.05828C2.17544 1.94111 2.3343 1.8752 2.5 1.875H8.80363L17.8841 10.9556L11.5301 17.8621Z" fill="black"/>
<path d="M5.78125 3.75C5.37951 3.75 4.98679 3.86913 4.65275 4.09233C4.31871 4.31552 4.05836 4.63276 3.90462 5.00392C3.75088 5.37509 3.71065 5.7835 3.78903 6.17753C3.86741 6.57155 4.06086 6.93349 4.34494 7.21756C4.62902 7.50164 4.99095 7.69509 5.38497 7.77347C5.779 7.85185 6.18741 7.81162 6.55858 7.65788C6.92974 7.50414 7.24698 7.24379 7.47017 6.90975C7.69337 6.57571 7.8125 6.18299 7.8125 5.78125C7.81189 5.24272 7.59769 4.72641 7.21689 4.34561C6.83609 3.96481 6.31978 3.75061 5.78125 3.75ZM5.78125 6.5625C5.62673 6.5625 5.47569 6.51668 5.34721 6.43084C5.21874 6.34499 5.1186 6.22298 5.05947 6.08022C5.00034 5.93747 4.98487 5.78038 5.01501 5.62884C5.04516 5.47729 5.11956 5.33808 5.22882 5.22882C5.33808 5.11956 5.47729 5.04516 5.62884 5.01501C5.78038 4.98487 5.93747 5.00034 6.08022 5.05947C6.22298 5.1186 6.34499 5.21873 6.43084 5.34721C6.51668 5.47569 6.5625 5.62673 6.5625 5.78125C6.56226 5.98838 6.47988 6.18695 6.33342 6.33341C6.18695 6.47988 5.98838 6.56226 5.78125 6.5625Z" fill="black"/>
</g>
<defs>
<clipPath id="clip0_103_9">
<rect width="20" height="20" fill="white"/>
</clipPath>
</defs>
</svg>
